<svg width="174" height="32" viewBox="0 0 174 32" fill="none" xmlns="http://www.w3.org/2000/svg">
<path fill-rule="evenodd" clip-rule="evenodd" d="M16.6435 0L20.5725 12.0922L33.287 12.0922L23.0007 19.5656L26.9297 31.6578L16.6435 24.1844L6.35725 31.6578L10.2862 19.5656L0 12.0922L12.7145 12.0922L16.6435 0ZM50.6435 0L54.5725 12.0922L67.287 12.0922L57.0007 19.5656L60.9297 31.6578L50.6435 24.1844L40.3573 31.6578L44.2862 19.5656L34 12.0922L46.7145 12.0922L50.6435 0ZM120.643 0L124.572 12.0922L137.287 12.0922L127.001 19.5656L130.93 31.6578L120.643 24.1844L110.357 31.6578L114.286 19.5656L104 12.0922L116.714 12.0922L120.643 0ZM89.5725 12.0922L85.6435 0L81.7145 12.0922L69 12.0922L79.2862 19.5656L75.3573 31.6578L85.6435 24.1844L95.9297 31.6578L92.0007 19.5656L102.287 12.0922L89.5725 12.0922ZM157.169 1.61804L160.572 12.0922L171.586 12.0922H173.287L171.911 13.0922L163.001 19.5656L166.404 30.0398L166.93 31.6578L165.553 30.6578L156.643 24.1844L147.734 30.6578L146.357 31.6578L146.883 30.0398L150.286 19.5656L141.376 13.0922L140 12.0922H141.701L152.714 12.0922L156.118 1.61804L156.643 0L157.169 1.61804ZM160.572 13.0922L170.209 13.0922L162.413 18.7566L161.825 19.1836L162.05 19.8746L165.028 29.0398L157.231 23.3754L156.643 22.9483L156.056 23.3754L148.259 29.0398L151.237 19.8746L151.462 19.1836L150.874 18.7566L143.078 13.0922L152.714 13.0922H153.441L153.666 12.4012L156.643 3.23607L159.621 12.4012L159.846 13.0922H160.572Z" fill="#FFCD00"/>
</svg>
